<?xml version="1.0" encoding="UTF-8"?>
<svg xmlns="http://www.w3.org/2000/svg" xmlns:xlink="http://www.w3.org/1999/xlink" version="1.1" id="Layer_1" x="0px" y="0px" viewBox="0 0 512 512" style="enable-background:new 0 0 512 512;" xml:space="preserve" width="512" height="512" fill="#A5ADA0">
<g>
	
		<polyline style="fill:none;stroke:#A5ADA0;stroke-width:30;stroke-linecap:round;stroke-linejoin:round;stroke-miterlimit:10;" points="&#10;&#9;&#9;15,63.2 79.267,448.8 432.733,448.8 497,63.2 &#9;"/>
	<path style="fill:none;stroke:#A5ADA0;stroke-width:30;stroke-linecap:round;stroke-linejoin:round;stroke-miterlimit:10;" d="&#10;&#9;&#9;M480.933,159.6c-31.036-31.041-81.431-31.041-112.467,0c-31.036,31.033-81.431,31.033-112.467,0&#10;&#9;&#9;c-31.036-31.041-81.431-31.041-112.467,0c-31.036,31.033-81.431,31.033-112.467,0"/>
	
		<circle style="fill:none;stroke:#A5ADA0;stroke-width:30;stroke-linecap:round;stroke-linejoin:round;stroke-miterlimit:10;" cx="191.733" cy="352.4" r="32.133"/>
	<path style="fill:none;stroke:#A5ADA0;stroke-width:30;stroke-linecap:round;stroke-linejoin:round;stroke-miterlimit:10;" d="&#10;&#9;&#9;M159.6,352.4v-80.333c0-17.738,14.398-32.133,32.133-32.133s32.133,14.396,32.133,32.133"/>
	<path style="fill:none;stroke:#A5ADA0;stroke-width:30;stroke-linecap:round;stroke-linejoin:round;stroke-miterlimit:10;" d="&#10;&#9;&#9;M288.133,352.4v-80.333c0-17.738,14.398-32.133,32.133-32.133c17.735,0,32.133,14.396,32.133,32.133V352.4&#10;&#9;&#9;c0,17.73-14.398,32.133-32.133,32.133C302.531,384.533,288.133,370.13,288.133,352.4z"/>
	
		<path style="fill-rule:evenodd;clip-rule:evenodd;fill:none;stroke:#A5ADA0;stroke-width:30;stroke-linecap:round;stroke-linejoin:round;stroke-miterlimit:10;" d="&#10;&#9;&#9;M400.6,231.9"/>
</g>















</svg>
